<?xml version="1.0" standalone="no"?>
<!DOCTYPE svg PUBLIC "-//W3C//DTD SVG 20010904//EN"
 "http://www.w3.org/TR/2001/REC-SVG-20010904/DTD/svg10.dtd">
<svg version="1.0" xmlns="http://www.w3.org/2000/svg"
 width="153.000000pt" height="131.000000pt" viewBox="0 0 153.000000 131.000000"
 preserveAspectRatio="xMidYMid meet">

<g transform="translate(0.000000,131.000000) scale(0.100000,-0.100000)"
fill="#000000" stroke="none">
<path d="M0 655 l0 -655 315 0 c173 0 315 2 315 5 0 3 -10 22 -23 43 -42 67
-59 113 -69 186 -5 39 -11 72 -12 73 -1 1 -27 -31 -59 -72 -65 -84 -101 -105
-232 -136 -95 -22 -111 -23 -70 -5 l30 14 -30 -1 c-24 -2 -31 2 -33 20 -2 13
1 23 7 23 6 0 11 9 11 20 0 11 -4 20 -9 20 -11 0 -1 53 13 62 6 4 7 11 2 15
-5 4 -11 2 -13 -4 -6 -16 -50 -17 -67 -1 -10 10 -10 15 3 30 8 10 21 18 28 18
6 0 15 9 18 20 3 11 11 20 16 20 5 0 9 21 9 46 0 46 25 114 41 114 5 0 9 16 9
35 0 38 18 85 33 85 5 0 7 13 4 30 -6 26 -2 32 23 45 16 8 36 27 43 42 14 25
15 25 21 7 6 -20 36 -30 36 -12 0 4 4 8 10 8 5 0 9 -16 8 -35 -1 -20 3 -40 8
-45 12 -12 5 71 -8 86 -10 14 -8 83 4 90 15 9 28 -36 28 -96 0 -34 5 -82 12
-108 9 -35 9 -47 0 -50 -7 -2 -12 -8 -12 -13 0 -6 5 -7 11 -3 9 5 10 -4 5 -32
-5 -28 -4 -35 3 -24 9 12 11 9 11 -13 0 -35 51 -167 62 -161 4 3 8 -2 8 -10 0
-9 5 -16 10 -16 13 0 110 -72 110 -81 0 -4 26 -13 58 -19 64 -14 72 -21 72
-69 0 -22 8 -44 22 -58 19 -20 20 -27 10 -43 -32 -51 -41 -50 363 -50 l375 0
0 655 0 655 -765 0 -765 0 0 -655z m700 453 c68 2 121 -12 117 -32 -1 -6 7
-10 19 -8 20 3 20 0 12 -80 -8 -79 -10 -85 -49 -120 -21 -21 -43 -48 -48 -60
-5 -13 -7 -69 -5 -125 2 -60 -1 -105 -6 -108 -6 -3 -10 -15 -10 -26 0 -14 -7
-19 -25 -19 -14 0 -25 -6 -25 -12 0 -10 -2 -10 -9 0 -7 11 -9 11 -14 -2 -4 -9
-13 -16 -21 -16 -7 0 -16 -7 -20 -15 -7 -20 18 -19 39 2 9 9 20 12 23 7 4 -5
21 -9 37 -9 27 0 30 3 27 29 -3 19 0 26 7 21 6 -3 8 -11 5 -17 -4 -6 1 -17 12
-25 16 -12 17 -15 4 -23 -8 -5 -33 -10 -55 -10 -45 -1 -128 -17 -105 -20 8 -1
31 -1 51 0 21 1 43 -5 52 -14 18 -18 37 -21 37 -6 0 6 5 10 10 10 7 0 7 -6 0
-20 -6 -11 -17 -20 -24 -20 -17 0 -48 -35 -39 -43 3 -4 26 -7 49 -7 24 0 45
-4 49 -9 10 -17 -42 -62 -78 -68 -53 -8 -97 12 -159 73 -63 63 -83 98 -99 176
-6 29 -15 73 -20 97 -14 68 -20 301 -8 323 6 10 10 38 10 61 1 61 17 116 44
142 l23 24 63 -27 c50 -21 78 -26 129 -24z m-350 -292 c-12 -12 -30 8 -29 34
0 10 3 8 9 -5 8 -20 9 -20 9 1 1 32 16 39 19 9 2 -15 -1 -32 -8 -39z m522 -32
c-3 -19 -7 -22 -13 -12 -13 20 -11 38 5 38 9 0 12 -8 8 -26z m-517 -24 c3 -5
-1 -10 -9 -10 -9 0 -16 5 -16 10 0 6 4 10 9 10 6 0 13 -4 16 -10z m759 -237
c-4 -26 -3 -34 4 -24 7 10 11 0 14 -35 2 -27 0 -50 -4 -52 -4 -2 -8 -15 -8
-28 0 -14 -6 -27 -12 -29 -8 -3 -12 -22 -12 -49 l2 -44 -31 17 c-58 30 -70 62
-42 111 13 22 14 23 15 5 1 -20 1 -20 12 -1 6 11 11 33 10 50 0 24 2 26 7 12
6 -15 10 -16 15 -7 5 7 3 18 -3 24 -6 6 -11 20 -10 32 1 17 2 16 9 -5 8 -27
13 -20 24 33 9 40 16 33 10 -10z m-34 -288 c0 -5 -5 -3 -10 5 -5 8 -10 20 -10
25 0 6 5 3 10 -5 5 -8 10 -19 10 -25z"/>
<path d="M488 877 c-20 -8 -28 -18 -28 -36 0 -19 3 -22 12 -13 30 30 69 2 41
-29 -12 -14 -11 -17 6 -22 13 -3 18 -1 15 8 -3 7 2 15 10 18 10 4 16 1 16 -8
0 -7 5 -17 10 -20 15 -9 74 -26 67 -19 -3 4 0 12 7 20 8 7 14 29 14 49 0 32
-3 36 -36 44 -67 17 -107 19 -134 8z m142 -87 c0 -11 -4 -20 -9 -20 -5 0 -7 9
-4 20 3 11 7 20 9 20 2 0 4 -9 4 -20z"/>
<path d="M660 581 c0 -5 11 -8 25 -8 13 0 22 3 19 8 -3 5 -14 9 -25 9 -10 0
-19 -4 -19 -9z"/>
<path d="M1101 454 c0 -11 3 -14 6 -6 3 7 2 16 -1 19 -3 4 -6 -2 -5 -13z"/>
<path d="M1035 339 c-11 -17 1 -21 15 -4 8 9 8 15 2 15 -6 0 -14 -5 -17 -11z"/>
</g>
</svg>
